<?xml version="1.0" encoding="utf-8"?>
<!DOCTYPE svg PUBLIC "-//W3C//DTD SVG 1.0//EN" "http://www.w3.org/TR/2001/REC-SVG-20010904/DTD/svg10.dtd">
<svg version="1.0" xmlns="http://www.w3.org/2000/svg" width="1254px" height="1254px" viewBox="0 0 1254 1254" preserveAspectRatio="xMidYMid meet">
<defs>
  <linearGradient id="bg" gradientUnits="userSpaceOnUse" x1="0" y1="0" x2="1254" y2="0">
    <stop offset="0" stop-color="#1E1E1C"/>
    <stop offset="0.5" stop-color="#2D2D2B"/>
    <stop offset="1" stop-color="#3A3A38"/>
  </linearGradient>
  <clipPath id="round"><rect x="0" y="0" width="1254" height="1254" rx="200" ry="200"/></clipPath>
</defs>
<g clip-path="url(#round)">

 <g fill="url(#bg)">
  <path d="M0 627 l0 -627 627 0 627 0 0 627 0 627 -627 0 -627 0 0 -627z m673.4 441.1 c0.3 -0.4 0.8 -42.8 1.1 -94.2 0.4 -51.4 0.8 -93.9 1 -94.5 0.2 -0.8 10.7 -1.3 34.7 -1.7 35.3 -0.6 50.7 -1.9 67.5 -5.6 35 -7.9 61.6 -20.9 84.2 -41.2 34.7 -31.3 54.9 -84.7 51 -135.2 -4.2 -55.6 -30.5 -95.8 -78.4 -120 -17 -8.6 -35.3 -14.2 -58.7 -17.9 -12.6 -2 -17.3 -2.2 -91.3 -2.5 -42.9 -0.2 -78.6 0 -79.3 0.5 -1 0.7 -1.3 50.3 -1.3 256 0 140.4 0.3 255.6 0.6 256.2 0.8 1.2 68.1 1.4 68.9 0.1z m486.1 -18.5 c14.2 -6.5 21.5 -22.5 17.4 -38.1 -2.5 -9.6 -18.8 -60.3 -30.3 -94 -12.9 -38 -58.6 -166.8 -72.1 -203 -7.8 -21 -15.5 -44.7 -15.5 -47.8 0 -1.7 0.4 -3.7 0.8 -4.3 0.4 -0.6 6.8 -5 14.2 -9.8 7.4 -4.9 17.2 -11.5 21.7 -14.7 7.1 -5.2 8.7 -5.9 12.7 -5.9 4.3 0 4.8 0.3 7.6 4.3 5.9 8.5 5.5 8.1 6.7 6.6 0.8 -1.1 -0.1 -4.3 -3.8 -13.3 -6.3 -15.5 -6.6 -20.8 -1.4 -26.9 3.6 -4.2 4.4 -7 2.3 -8.4 -0.7 -0.4 -5.6 -1 -10.8 -1.3 l-9.5 -0.5 -7.3 -11 c-4 -6 -7.7 -11 -8.2 -10.9 -0.6 0.1 -1.4 0.2 -2 0.3 -0.5 0 0.2 2.5 1.5 5.4 2.7 5.7 3.3 12.8 1.1 14.6 -0.7 0.6 -11.8 6.3 -24.6 12.6 -19.7 9.7 -24.1 11.5 -28.1 11.5 -5.3 0 -5.7 -0.3 -9.8 -8.7 -3.7 -7.4 -4.3 -16.7 -1.3 -22 1.1 -2.1 11.7 -10.8 30.7 -25 69.6 -52.3 97.2 -79.3 103.5 -100.8 3.9 -13.4 -14.1 -22.8 -37.1 -19.6 -24.2 3.5 -55.8 13.7 -111.9 36.1 -35.7 14.3 -37.7 15 -43.8 15 -7.9 0 -10.8 -2.1 -17.5 -12.7 -5.9 -9.3 -7.1 -14.1 -4.4 -17.5 0.6 -0.8 11.5 -7.1 24.1 -13.8 21.8 -11.6 23.1 -12.2 27.5 -11.7 2.5 0.3 5.6 0.9 6.9 1.2 1.2 0.4 2.2 0.3 2.2 -0.3 0 -0.5 -2.2 -5 -5 -10 -6 -10.8 -6.7 -17 -2.6 -21.9 4.2 -5.1 5 -7.3 3.2 -9.2 -1.3 -1.2 -3.4 -1.5 -9.9 -1.3 -9.8 0.3 -9.1 0.8 -19.2 -14.5 -7.1 -11 -8.1 -12.1 -9.7 -10.5 -0.6 0.6 -0.1 2.7 1.6 6 3 5.9 3.5 13.2 1.1 15.6 -0.9 0.9 -3.9 2.2 -6.7 3.1 -2.8 0.8 -6.1 2.1 -7.2 2.8 -1.2 0.8 -9.9 4.8 -19.4 9 -20.9 9.3 -23.9 9.7 -29.3 4 -2 -2.1 -10 -11.7 -17.9 -21.3 -7.9 -9.6 -17.1 -20.8 -20.4 -24.9 -36.9 -45 -87.6 -103.8 -116 -134.6 -7.6 -8.2 -20.2 -22 -28 -30.5 -20 -21.9 -24.8 -26.5 -31.3 -29.7 -5.1 -2.5 -6.9 -2.8 -15.3 -2.8 -8.7 0 -10 0.3 -14.9 3 -10.7 5.9 -17.9 14.7 -19.6 23.7 -1.4 7.3 0.6 11.7 39.5 86.3 11.1 21.5 23.7 45.5 28 53.5 16.8 31.5 85.6 165.4 96.9 188.8 l4.5 9.1 7 1.7 c51.1 12.3 94.4 42.2 117 80.6 21.5 36.8 27.9 83.6 18.1 133.6 l-2.4 12.3 32.3 53.2 c74.2 122.3 137.1 222.4 144.4 230 11.4 11.8 26.6 15.3 39.7 9.3z m-1010.4 -202.6 c0.4 -1.9 1.2 -11.8 1.8 -22 2.8 -45.6 12.5 -194.4 17.6 -268.5 4.9 -72.6 6.8 -96 7.8 -97.2 1.5 -2 7.5 -1.6 8.5 0.5 1 1.8 10.2 31.8 26.1 85.2 20.1 67.5 27.8 93.7 75.3 255.5 7.7 26.4 14.5 48.6 15.1 49.3 0.7 0.9 6.3 1.2 21.7 1.2 15.4 0 21 -0.3 21.8 -1.2 0.5 -0.7 23.2 -67.7 50.5 -148.8 27.2 -81.1 54.8 -162.8 61.2 -181.5 6.4 -18.7 13.5 -39.4 15.7 -46 2.2 -6.6 4.4 -12.8 5 -13.7 1 -2.1 7 -2.5 8.5 -0.5 1.1 1.3 1.4 14.5 3.8 177.7 2 132.7 3.5 211.2 4.1 212.2 0.3 0.4 14.9 0.8 32.5 0.8 l32 0 -0.6 -13.2 c-0.6 -14.1 -1.6 -41.6 -4 -115.8 -0.8 -25 -2 -58.5 -2.5 -74.5 -0.6 -15.9 -1.5 -43.2 -2 -60.5 -1.7 -54.3 -4.3 -130.3 -6.8 -201 l-0.7 -19.5 -8.5 -0.7 c-10.8 -0.8 -68.5 -0.8 -76.9 0.1 l-6.4 0.6 -11.5 34 c-6.3 18.7 -32.3 96.3 -57.7 172.5 l-46.3 138.5 -4.8 0 -4.7 0 -6.9 -23 c-3.8 -12.6 -8.8 -29.1 -11 -36.5 -38.8 -129.7 -47.5 -158.1 -60.8 -198.5 -4.3 -13.2 -12.4 -37.9 -18 -55 -5.6 -17 -10.4 -31.3 -10.8 -31.7 -0.9 -0.9 -93.4 -1.4 -94.9 -0.5 -0.6 0.4 -1.3 4.2 -1.7 8.4 -0.8 10.7 -5 62.3 -8.1 99.8 -4.8 58.8 -14.2 175 -17.5 216 -1.1 13.8 -3.3 42.3 -5 63.5 -6.8 85.2 -7.6 97 -6.5 97.4 0.5 0.3 15.4 0.4 33 0.3 l31.9 -0.2 0.7 -3.5z"/>
  <path d="M675.2 812.3 c-0.4 -1 -0.7 -44.9 -0.7 -97.6 0 -93.7 0 -95.9 1.9 -97.3 2.9 -2.1 69 -2 82.9 0.1 25.5 3.8 47.4 15.6 59.3 31.7 6 8.2 12 20.6 14.5 30.3 2.7 10.2 3.8 39.6 1.9 51.3 -6.2 38.4 -27.6 65.5 -61 76.9 -16.1 5.5 -24.3 6.3 -63.3 6.3 -32.2 0 -34.8 -0.1 -35.5 -1.7z"/>
 </g>
 <g fill="#ececef">
  <path d="M601.5 1070.9 c-0.4 -0.5 -0.7 -117.2 -0.6 -259.1 0 -209.2 0.3 -258.3 1.3 -259 0.7 -0.5 37.8 -0.7 82.3 -0.5 77.1 0.3 81.6 0.4 94.3 2.5 59.9 9.6 100.1 36.1 122.5 80.8 15.8 31.4 19.7 76 10.1 116.4 -16.9 71.6 -70.4 116.3 -151.7 126.6 -7.6 0.9 -25.1 1.7 -46.5 2.1 -24 0.4 -34.5 0.9 -34.7 1.7 -0.2 0.6 -0.6 43.1 -0.9 94.4 -0.3 51.4 -0.8 93.8 -1.2 94.3 -0.8 1.3 -74.1 1.2 -74.9 -0.2z m150.5 -261.4 c44.2 -7.2 72.7 -36.3 80 -81.7 1.8 -11.2 0.8 -35 -1.9 -45.3 -2.5 -9.7 -8.5 -22.1 -14.5 -30.3 -11.9 -16.1 -33.8 -27.9 -59.3 -31.7 -13.9 -2.1 -74 -2.2 -76.9 -0.1 -1.9 1.4 -1.9 3.5 -1.9 94.3 0 51 0.3 93.6 0.7 94.6 0.7 1.6 3.2 1.7 32.5 1.7 23.8 0 34.2 -0.4 41.3 -1.5z"/>
  <path d="M80.2 853.2 c-1.3 -0.9 -1 -5.4 6.8 -103.7 1.7 -20.9 3.9 -49.2 5 -63 3.3 -42 13 -161.9 17.5 -215.5 1.3 -16.8 3.6 -44.9 5 -62.5 1.5 -17.6 2.9 -35.1 3.3 -39 l0.7 -7 9 -0.6 c11.3 -0.7 91.8 0.1 92.7 1 0.4 0.3 5.2 14.5 10.8 31.6 5.6 17.1 13.7 41.8 18 55 13.3 40.4 22 68.8 60.8 198.5 17.3 57.9 17.9 59.5 19.6 59.5 1.5 0 9.8 -24 48.1 -138.5 25.4 -76.2 51.4 -153.8 57.7 -172.5 l11.5 -34 6.9 -0.7 c10.5 -1.1 89.4 -0.5 90.4 0.7 0.4 0.5 1 11.4 1.4 24 0.4 12.7 1.1 34.7 1.6 49 1 27 3.3 94.2 5 148 0.5 17.1 1.4 44.1 2 60 0.5 16 1.7 49.3 2.5 74 0.8 24.8 2.2 64.1 3 87.5 0.8 23.4 1.5 43.7 1.5 45.3 l0 2.7 -34.9 0 c-19.3 0 -35.2 -0.4 -35.5 -0.8 -0.6 -1 -2.1 -79.3 -4.1 -212.2 -2.6 -171.1 -2.7 -176.9 -4.1 -178.1 -1.7 -1.4 -2.2 -0.2 -7.2 14.6 -2.2 6.6 -9.3 27.3 -15.7 46 -6.4 18.7 -34 100.4 -61.2 181.5 -27.3 81.1 -50 148.1 -50.5 148.8 -0.8 0.9 -7 1.2 -24.8 1.2 -17.8 0 -24 -0.3 -24.7 -1.2 -0.6 -0.7 -7.4 -22.9 -15.1 -49.3 -47.5 -161.8 -55.2 -188 -75.3 -255.5 -16.2 -54.3 -25.1 -83.4 -26.1 -85.4 -2.5 -4.7 -3.5 1 -5.7 30.9 -5.4 74.1 -17.9 263.7 -22.2 334.5 -0.6 10.2 -1.4 20.1 -1.8 22 l-0.7 3.5 -34.9 0.2 c-19.3 0.2 -35.6 -0.1 -36.3 -0.5z"/>
 </g>
 <g fill="#8ebf3b">
  <path d="M1135 1054.5 c-6.4 -1.9 -13.1 -5.9 -18.2 -11.2 -7.3 -7.6 -71 -109 -143.1 -227.8 -17 -28 -31.7 -52.4 -32.7 -54 -1.9 -3 -1.8 -3.3 1 -17.4 10 -49.4 4.1 -92.8 -17.6 -129.9 -22.6 -38.4 -65.9 -68.3 -117 -80.6 l-7 -1.7 -4.5 -9.1 c-11.3 -23.4 -80.1 -157.3 -96.9 -188.8 -32.3 -60.5 -64.6 -124 -66.6 -130.9 -4.6 -15.3 2.4 -29.6 18.7 -38.6 5.2 -2.9 5.9 -3 17.9 -3 19.4 0 20.8 0.9 49.6 32.5 7.8 8.5 20.4 22.3 28 30.5 28.4 30.8 79.1 89.6 116 134.6 3.3 4.1 12.5 15.3 20.4 24.9 16.4 20.1 20.9 25 22.7 25 1.2 0 24.2 -10 36.8 -16 3.3 -1.5 8.1 -3.6 10.8 -4.5 6.3 -2.2 6.8 -4.4 2.7 -12.5 -3.7 -7.2 -3.6 -10 0.4 -11.8 4.4 -2.2 6.6 -0.4 14.1 11 10 15.3 9.5 15 17.9 14.3 8.2 -0.7 11.5 0.6 13 4.8 1.1 3 -0.3 6.3 -5.1 12 -1.3 1.6 -2.3 3.8 -2.3 4.9 0 1.1 2.5 6.5 5.6 12 6.2 11.2 6.6 14.5 2.2 16.6 -2.3 1.1 -3.1 1 -5 -0.2 -5.4 -3.3 -5.8 -3.2 -30.2 9.9 -12.9 6.9 -23.7 13.3 -24 14.1 -0.9 2.3 10 19.2 13.8 21.5 5.6 3.4 5.2 3.5 46.6 -13.1 79.4 -31.8 116.2 -41.2 138.5 -35.5 21.3 5.5 23 21.9 4.9 45.7 -14.3 18.7 -39.8 40.9 -91.9 80.1 -19 14.2 -29.6 22.9 -30.7 25 -2.6 4.6 -2.2 9 1.3 16 3.7 7.4 4.7 8.7 6.8 8.7 2.1 0 48 -22.5 50.1 -24.5 1.2 -1.3 1.1 -2.1 -0.9 -6.7 -4.9 -11.3 -4.8 -10.7 -2.1 -12.8 1.4 -1.1 3.7 -2 5.2 -2 2.4 0 3.7 1.5 10.5 11.7 l7.8 11.8 9.8 0.5 c8.3 0.4 10.1 0.8 11.3 2.4 0.8 1.1 1.4 2.8 1.4 3.9 0 2.8 -2.8 8.1 -5.6 10.8 -1.3 1.3 -2.4 3.4 -2.4 4.9 0 1.4 2.3 8.1 5 14.9 5.7 14.1 6.1 17.3 2.5 19.7 -3.5 2.3 -5.9 1 -10.3 -5.6 -2.1 -3 -4.5 -5.6 -5.4 -5.8 -0.9 -0.2 -7.1 3.5 -13.7 8.1 -6.6 4.7 -16.5 11.4 -22.1 14.9 -5.5 3.4 -10.2 6.9 -10.5 7.6 -0.4 1.2 7.6 25.9 15 45.7 13.5 36.2 59.2 165 72.1 203 11.5 33.7 27.8 84.4 30.3 94 1.9 7 1.4 20.7 -1 27 -2.5 6.8 -9.4 13.9 -16.7 17.3 -6.9 3.1 -19.2 3.9 -27.2 1.7z"/>
 </g>
</g>
</svg>